<?xml version="1.0" standalone="no"?><!DOCTYPE svg PUBLIC "-//W3C//DTD SVG 1.1//EN" "http://www.w3.org/Graphics/SVG/1.1/DTD/svg11.dtd"><svg class="icon" height="512" viewBox="0 0 1024 1024" version="1.1" xmlns="http://www.w3.org/2000/svg"><path d="M752.391838 60.256677 151.391768 60.256677C134.803134 60.256677 121.368388 73.773342 121.368388 90.361976L121.368388 813.175868C121.368388 829.805462 107.892683 843.281167 91.304049 843.281167 74.674455 843.281167 61.239709 829.805462 61.239709 813.175868L61.239709 90.361976C61.239709 40.555114 101.707785 0.00512 151.391768 0.00512L752.391838 0.00512C769.021431 0.00512 782.456177 13.480825 782.456177 30.110419 782.456177 46.740013 769.021431 60.256677 752.391838 60.256677ZM662.239779 752.924311 662.239779 1023.99488 667.441647 1023.99488C691.484927 1023.99488 714.13558 1014.615134 731.17477 997.534985L936.382318 791.876881C953.380548 774.837692 962.760294 752.146079 962.760294 727.97992L962.760294 722.819012 692.304119 722.819012C675.715485 722.819012 662.239779 736.335677 662.239779 752.924311ZM872.608236 120.467275 271.608166 120.467275C221.883223 120.467275 181.456107 161.01727 181.456107 210.824132L181.456107 933.638024C181.456107 983.485845 221.883223 1023.99488 271.608166 1023.99488L602.15206 1023.99488 602.15206 752.924311C602.15206 703.117449 642.579176 662.567454 692.304119 662.567454L962.760294 662.567454 962.760294 210.824132C962.760294 161.01727 922.333178 120.467275 872.608236 120.467275Z" /></svg>