<?xml version="1.0" standalone="no"?><!DOCTYPE svg PUBLIC "-//W3C//DTD SVG 1.1//EN" "http://www.w3.org/Graphics/SVG/1.1/DTD/svg11.dtd"><svg class="icon" height="512" viewBox="0 0 1024 1024" version="1.1" xmlns="http://www.w3.org/2000/svg"><path d="M246.01344 586.304h527.09632v31.26272H246.01344zM512.20736 5.06112C234.28608 5.06112 6.89664 232.448 6.89664 510.37184c0 277.9136 168.50688 505.30048 507.87072 505.30048 277.9136 0 502.74304-227.38432 502.74304-505.30048 0-277.92384-227.38944-505.31072-505.30304-505.31072z m292.81792 651.63776c0 23.72096-19.69664 43.01568-43.90656 43.01568H553.472v78.26432h67.89376c8.81408 0 15.95904 6.99904 15.95904 15.63392s-7.14496 15.63392-15.95904 15.63392h-223.60576c-8.81152 0-15.95648-6.99904-15.95648-15.63392s7.14496-15.63392 15.95648-15.63392h67.89376v-78.26432h-207.64672c-24.21248 0-43.90912-19.29472-43.90912-43.01568V300.72832c0-23.7184 19.69664-43.01568 43.90912-43.01568h503.10912c24.20992 0 43.90656 19.29728 43.90656 43.01568v355.97056z" /></svg>