<?xml version="1.0" standalone="no"?><!DOCTYPE svg PUBLIC "-//W3C//DTD SVG 1.1//EN" "http://www.w3.org/Graphics/SVG/1.1/DTD/svg11.dtd"><svg class="icon" height="512" viewBox="0 0 1510 1024" version="1.1" xmlns="http://www.w3.org/2000/svg"><path d="M1496.39663 955.896166C1499.47267 946.870261 1501.515366 937.381667 1501.515366 927.366974L1501.515366 97.609352C1501.515366 88.100193 1499.613189 79.094854 1496.830189 70.476804L1009.347436 487.863574 1496.39663 955.896166 1496.39663 955.896166ZM754.258987 588.522873 882.659191 484.059222 947.636442 431.190768 1437.173887 12.164016C1429.13163 9.775159 1420.796335 8.097475 1412.015487 8.097475L96.574464 8.097478C87.771338 8.097478 79.41548 9.775162 71.364655 12.182869L561.186568 431.432397 626.184383 484.321415 754.258987 588.522873 754.258987 588.522873ZM1412.015487 1016.877137C1420.431325 1016.877137 1428.435879 1015.319409 1436.173102 1013.113915L944.36847 540.713176 754.258987 695.414795 564.452824 540.954805 72.445981 1013.134479C80.174636 1015.317695 88.167196 1016.87542 96.574464 1016.87542L1412.015487 1016.87542 1412.015487 1016.877137ZM11.758048 70.476804C8.975047 79.096567 7.072872 88.100193 7.072872 97.609352L7.072872 927.365263C7.072872 937.400517 9.117281 946.889114 12.191607 955.894453L499.465294 488.065787 11.758048 70.476804 11.758048 70.476804Z" /></svg>