<?xml version="1.0" standalone="no"?><!DOCTYPE svg PUBLIC "-//W3C//DTD SVG 1.1//EN" "http://www.w3.org/Graphics/SVG/1.1/DTD/svg11.dtd"><svg class="icon" height="512" viewBox="0 0 1024 1024" version="1.1" xmlns="http://www.w3.org/2000/svg"><path d="M512 0C372.928 0 355.52 0.64 300.928 3.072 246.4 5.632 209.28 14.208 176.64 26.88a250.112 250.112 0 0 0-90.688 59.072c-28.48 28.416-46.08 56.96-59.072 90.688-12.672 32.64-21.312 69.76-23.808 124.288C0.512 355.52 0 372.928 0 512s0.64 156.48 3.072 211.072c2.56 54.528 11.136 91.712 23.808 124.288 13.056 33.664 30.592 62.272 59.072 90.688 28.416 28.48 56.96 46.08 90.688 59.072 32.64 12.672 69.76 21.312 124.288 23.808 54.592 2.56 72 3.072 211.072 3.072s156.48-0.64 211.072-3.072c54.528-2.56 91.712-11.136 124.288-23.808a250.112 250.112 0 0 0 90.688-59.072c28.48-28.416 46.08-56.96 59.072-90.688 12.672-32.64 21.312-69.76 23.808-124.288 2.56-54.592 3.072-72 3.072-211.072s-0.64-156.48-3.072-211.072c-2.56-54.528-11.136-91.712-23.808-124.288a250.112 250.112 0 0 0-59.072-90.688A248.704 248.704 0 0 0 847.36 26.88c-32.64-12.672-69.76-21.312-124.288-23.808C668.48 0.512 651.072 0 512 0z m0 92.16c136.704 0 152.96 0.64 206.912 3.072 49.92 2.304 76.992 10.624 95.04 17.664 23.936 9.28 40.96 20.352 58.88 38.272 17.92 17.92 28.992 34.944 38.272 58.88 7.04 18.048 15.36 45.12 17.664 95.04 2.432 54.016 3.008 70.208 3.008 206.912s-0.64 152.96-3.2 206.912c-2.56 49.92-10.88 76.992-17.92 95.04-9.6 23.936-20.48 40.96-38.4 58.88-17.92 17.92-35.2 28.992-58.88 38.272-17.92 7.04-45.44 15.36-95.36 17.664-54.4 2.432-70.4 3.008-207.36 3.008s-152.96-0.64-207.36-3.2c-49.92-2.56-77.44-10.88-95.36-17.92a159.36 159.36 0 0 1-58.88-38.4c-17.92-17.92-29.44-35.2-38.4-58.88-7.04-17.92-15.36-45.44-17.92-95.36-1.92-53.76-2.56-70.4-2.56-206.72s0.64-152.96 2.56-207.36c2.56-49.92 10.88-77.44 17.92-95.36 8.96-24.32 20.48-40.96 38.4-58.88 17.92-17.92 34.56-29.44 58.88-38.4 17.92-7.04 44.8-15.36 94.72-17.92 54.4-1.92 70.4-2.56 207.36-2.56z m0 156.928a262.912 262.912 0 1 0 0 525.76 262.912 262.912 0 0 0 0-525.76z m0 433.6a170.688 170.688 0 1 1 0-341.376 170.688 170.688 0 0 1 0 341.376z m334.72-443.968a61.44 61.44 0 1 1-122.88 0 61.44 61.44 0 0 1 122.88 0z" /></svg>